<?xml version="1.0" encoding="UTF-8" standalone="no"?>
<svg
   xmlns:dc="http://purl.org/dc/elements/1.1/"
   xmlns:cc="http://creativecommons.org/ns#"
   xmlns:rdf="http://www.w3.org/1999/02/22-rdf-syntax-ns#"
   xmlns:svg="http://www.w3.org/2000/svg"
   xmlns="http://www.w3.org/2000/svg"
   xmlns:sodipodi="http://sodipodi.sourceforge.net/DTD/sodipodi-0.dtd"
   xmlns:inkscape="http://www.inkscape.org/namespaces/inkscape"
   inkscape:export-ydpi="576"
   inkscape:export-xdpi="576"
   inkscape:export-filename="E:\Filedline\5 - Noodles.png"
   width="64pt"
   height="64pt"
   viewBox="0 0 22.577778 22.577778"
   version="1.1"
   id="svg831"
   inkscape:version="1.0 (4035a4fb49, 2020-05-01)"
   sodipodi:docname="EXPORT 64px.svg">
  <defs
     id="defs825">
    <pattern
       id="EMFhbasepattern"
       patternUnits="userSpaceOnUse"
       width="6"
       height="6"
       x="0"
       y="0" />
    <pattern
       id="EMFhbasepattern-9"
       patternUnits="userSpaceOnUse"
       width="6"
       height="6"
       x="0"
       y="0" />
    <pattern
       id="EMFhbasepattern-0"
       patternUnits="userSpaceOnUse"
       width="6"
       height="6"
       x="0"
       y="0" />
    <pattern
       id="EMFhbasepattern-7"
       patternUnits="userSpaceOnUse"
       width="6"
       height="6"
       x="0"
       y="0" />
    <pattern
       id="EMFhbasepattern-2"
       patternUnits="userSpaceOnUse"
       width="6"
       height="6"
       x="0"
       y="0" />
    <pattern
       id="EMFhbasepattern-98"
       patternUnits="userSpaceOnUse"
       width="6"
       height="6"
       x="0"
       y="0" />
    <pattern
       id="EMFhbasepattern-6"
       patternUnits="userSpaceOnUse"
       width="6"
       height="6"
       x="0"
       y="0" />
    <pattern
       id="EMFhbasepattern-01"
       patternUnits="userSpaceOnUse"
       width="6"
       height="6"
       x="0"
       y="0" />
    <pattern
       id="EMFhbasepattern-07"
       patternUnits="userSpaceOnUse"
       width="6"
       height="6"
       x="0"
       y="0" />
    <pattern
       id="EMFhbasepattern-8"
       patternUnits="userSpaceOnUse"
       width="6"
       height="6"
       x="0"
       y="0" />
    <pattern
       id="EMFhbasepattern-4"
       patternUnits="userSpaceOnUse"
       width="6"
       height="6"
       x="0"
       y="0" />
    <pattern
       id="EMFhbasepattern-40"
       patternUnits="userSpaceOnUse"
       width="6"
       height="6"
       x="0"
       y="0" />
    <pattern
       id="EMFhbasepattern-08"
       patternUnits="userSpaceOnUse"
       width="6"
       height="6"
       x="0"
       y="0" />
    <pattern
       id="EMFhbasepattern-04"
       patternUnits="userSpaceOnUse"
       width="6"
       height="6"
       x="0"
       y="0" />
    <pattern
       id="EMFhbasepattern-014"
       patternUnits="userSpaceOnUse"
       width="6"
       height="6"
       x="0"
       y="0" />
    <pattern
       id="EMFhbasepattern-27"
       patternUnits="userSpaceOnUse"
       width="6"
       height="6"
       x="0"
       y="0" />
    <pattern
       id="EMFhbasepattern-09"
       patternUnits="userSpaceOnUse"
       width="6"
       height="6"
       x="0"
       y="0" />
    <pattern
       id="EMFhbasepattern-5"
       patternUnits="userSpaceOnUse"
       width="6"
       height="6"
       x="0"
       y="0" />
    <pattern
       id="EMFhbasepattern-018"
       patternUnits="userSpaceOnUse"
       width="6"
       height="6"
       x="0"
       y="0" />
  </defs>
  <sodipodi:namedview
     id="base"
     pagecolor="#ffffff"
     bordercolor="#666666"
     borderopacity="1.0"
     inkscape:pageopacity="0.0"
     inkscape:pageshadow="2"
     inkscape:zoom="3.3909162"
     inkscape:cx="9.805947"
     inkscape:cy="23.142722"
     inkscape:document-units="pt"
     inkscape:current-layer="layer1"
     showgrid="false"
     units="pt"
     inkscape:window-width="1366"
     inkscape:window-height="715"
     inkscape:window-x="-8"
     inkscape:window-y="-8"
     inkscape:window-maximized="1"
     inkscape:pagecheckerboard="true"
     inkscape:showpageshadow="false"
     inkscape:object-paths="true"
     inkscape:snap-intersection-paths="true"
     inkscape:snap-smooth-nodes="true"
     inkscape:snap-midpoints="true"
     showguides="true"
     inkscape:snap-bbox="true"
     inkscape:bbox-nodes="true"
     inkscape:snap-nodes="false"
     inkscape:snap-global="true"
     inkscape:document-rotation="0">
    <inkscape:grid
       type="xygrid"
       id="grid1378" />
    <sodipodi:guide
       position="0.97013831,21.607643"
       orientation="78.000048,0"
       id="guide1380"
       inkscape:locked="false" />
    <sodipodi:guide
       position="0.97013831,0.97013129"
       orientation="0,78.000005"
       id="guide1382"
       inkscape:locked="false" />
    <sodipodi:guide
       position="21.607639,0.97013129"
       orientation="-78.000048,0"
       id="guide1384"
       inkscape:locked="false" />
    <sodipodi:guide
       position="21.607639,21.607643"
       orientation="0,-78.000005"
       id="guide1386"
       inkscape:locked="false" />
  </sodipodi:namedview>
  <metadata
     id="metadata828">
    <rdf:RDF>
      <cc:Work
         rdf:about="">
        <dc:format>image/svg+xml</dc:format>
        <dc:type
           rdf:resource="http://purl.org/dc/dcmitype/StillImage" />
        <dc:title></dc:title>
      </cc:Work>
    </rdf:RDF>
  </metadata>
  <g
     inkscape:label="Icon"
     inkscape:groupmode="layer"
     id="layer1"
     transform="translate(0,-274.42223)">
    <path
       id="path1843"
       style="color:#000000;font-style:normal;font-variant:normal;font-weight:normal;font-stretch:normal;font-size:medium;line-height:normal;font-family:sans-serif;font-variant-ligatures:normal;font-variant-position:normal;font-variant-caps:normal;font-variant-numeric:normal;font-variant-alternates:normal;font-variant-east-asian:normal;font-feature-settings:normal;font-variation-settings:normal;text-indent:0;text-align:start;text-decoration:none;text-decoration-line:none;text-decoration-style:solid;text-decoration-color:#000000;letter-spacing:normal;word-spacing:normal;text-transform:none;writing-mode:lr-tb;direction:ltr;text-orientation:mixed;dominant-baseline:auto;baseline-shift:baseline;text-anchor:start;white-space:normal;shape-padding:0;shape-margin:0;inline-size:0;clip-rule:nonzero;display:inline;overflow:visible;visibility:visible;isolation:auto;mix-blend-mode:normal;color-interpolation:sRGB;color-interpolation-filters:linearRGB;solid-color:#000000;solid-opacity:1;vector-effect:none;fill:#000000;fill-opacity:1;fill-rule:nonzero;stroke:none;stroke-width:0.664818;stroke-linecap:round;stroke-linejoin:round;stroke-miterlimit:4;stroke-dasharray:none;stroke-dashoffset:0;stroke-opacity:1;color-rendering:auto;image-rendering:auto;shape-rendering:auto;text-rendering:auto;enable-background:accumulate;stop-color:#000000"
       d="m 8.9787751,281.42539 c 0.9643572,-0.25857 1.9286849,-0.51729 2.8929919,-0.77584 0.273562,-0.32249 0.392698,-0.76854 0.275926,-1.20433 l 7.849257,-2.10352 c 0.528194,-0.14153 0.848546,-0.69368 0.70702,-1.22186 -0.109315,-0.44072 -0.720123,-0.82861 -1.221861,-0.70378 l -4e-6,-8e-5 -7.852504,2.10287 c -0.18904,-0.70551 -0.921477,-1.12911 -1.626984,-0.94008 l -0.6310587,0.16879 c 0.044035,0.62021 -0.1803814,0.94707 -0.341479,1.4693 0.224356,-0.0602 0.4486881,-0.12036 0.6732565,-0.1805 0.2159824,-0.043 0.3779852,0.0956 0.4077192,0.23307 0.04785,0.17773 -0.05779,0.3605 -0.2356712,0.40773 -0.2997256,0.0803 -0.599465,0.16056 -0.8991918,0.24086 0.0223,0.24208 0.093824,0.44713 0.159124,0.64666 l 0.911528,-0.24476 c 0.217016,-0.0428 0.367208,0.0637 0.407719,0.23568 0.04744,0.17749 -0.05811,0.35983 -0.235671,0.40706 l -0.9745025,0.26164 c -0.024298,0.43826 -0.105596,0.86624 -0.2656144,1.20109 z M 7.7166559,277.191 c 0.019674,0.23409 0.02965,0.44103 -0.1292769,0.8215 -0.1589317,0.38047 -0.1669158,0.9798 0.042477,1.56954 0.2093904,0.58976 0.1541413,1.26097 -0.1404332,1.83938 -0.098422,0.37795 -0.030944,0.6547 0.069463,0.9797 0.1307267,0.34983 0.1791853,0.76072 0.1441295,1.1855 -0.5472411,-0.32896 -1.1855586,-0.52004 -1.8691499,-0.52004 -1.9035347,0 -3.471131,1.46419 -3.6396147,3.32474 h 1.3374258 c 0.1626179,-1.12457 1.1339428,-1.99445 2.3021889,-1.99445 1.1682474,0 2.1373574,0.86988 2.2995933,1.99445 h 1.4497434 c 0.1163503,-0.19759 0.3295098,-0.33371 0.5719759,-0.33371 0.242395,0 0.455143,0.13622 0.571327,0.33371 h 0.712212 c -0.146732,-0.57522 -0.660579,-0.99852 -1.283539,-0.99852 -0.3118756,0 -0.592722,0.11056 -0.8186861,0.28891 -0.065946,-0.22139 -0.153091,-0.43319 -0.257746,-0.63496 0.311397,-0.20016 0.6808323,-0.31877 1.0764321,-0.31877 0.984282,0 1.804552,0.72276 1.963939,1.66334 h 1.339371 c -0.03861,-0.37757 -0.140003,-0.737 -0.2941,-1.06734 0.503192,-0.94596 1.498518,-1.59257 2.641735,-1.59257 1.536077,0 2.805611,1.16703 2.971554,2.65991 h 1.332879 c -0.170416,-2.22784 -2.033684,-3.98956 -4.304433,-3.98956 -1.439172,0 -2.715871,0.70662 -3.501326,1.79255 -0.19754,-0.19378 -0.844191,-0.52724 -0.845304,-0.52783 0.0403,-0.26831 0.0245,-0.54416 -0.05843,-0.8083 -0.151592,-0.3796 -0.317514,-0.83171 -0.35708,-1.29847 -0.239082,0.0639 -0.478327,0.12759 -0.717405,0.19153 -0.0089,0.2882 0.09173,0.48947 0.208405,0.75376 0.133724,0.30389 0.209812,0.62552 0.231126,0.95047 -0.198209,-0.0373 -0.40261,-0.0572 -0.611579,-0.0572 l 6.65e-4,-6.7e-4 c -0.02094,0 -0.04146,0.003 -0.06233,0.003 -0.02444,-0.21456 -0.07758,-0.42642 -0.1662048,-0.62781 -0.1640463,-0.27213 -0.2197251,-0.56219 -0.2590488,-0.84466 -0.2432427,0.0651 -0.4864967,0.13026 -0.7297431,0.19543 0.011433,0.18929 0.1077318,0.35078 0.1863251,0.52847 0.1194912,0.27156 0.1889446,0.55815 0.2187917,0.84791 -0.2256224,0.057 -0.4424793,0.13651 -0.6472866,0.23697 -0.084489,-0.8615 -0.400702,-1.19988 -0.4419001,-1.87373 6.646e-4,-0.24333 0.031308,-0.45518 0.1889835,-0.80055 0.1576779,-0.34535 0.2006651,-0.84616 0.061724,-1.24179 -0.1389432,-0.39563 -0.2064782,-0.76805 -0.1948306,-1.30266 0.01789,-0.82149 0.4293454,-1.06739 0.3872993,-1.58931 z m -0.6654659,0.17854 -2.0418461,0.54665 c -0.1764954,0.0484 -0.2806755,0.23036 -0.233075,0.40707 l 0.2570989,0.96217 c 0.5949811,-0.15963 1.1902322,-0.31825 1.7853967,-0.47719 -0.012187,-0.41049 0.061385,-0.82249 0.2272343,-1.20628 l -0.00515,0.0126 c -0.00302,0.008 0.00716,-0.10767 0.010428,-0.24477 z m -4.7433236,1.07385 c -0.1763396,0.0555 -0.2734829,0.24428 -0.216196,0.42006 0.1470944,0.46199 0.1015129,0.96279 -0.1252955,1.39132 -0.00905,0.0181 -0.016458,0.0371 -0.022074,0.0565 -0.1839808,0.59254 -0.1221546,1.23523 0.172048,1.7815 0.087027,0.16104 0.287877,0.22141 0.4492711,0.13503 0.1623314,-0.0873 0.2226236,-0.29002 0.1343928,-0.45185 -0.2061629,-0.38281 -0.2504303,-0.83084 -0.1272492,-1.24719 0.2934665,-0.57795 0.3488928,-1.25052 0.1519201,-1.86915 -0.1229839,-0.26379 -0.2959138,-0.24182 -0.4168134,-0.2162 z m 1.361446,0 c -0.1760771,0.0558 -0.2728849,0.24447 -0.215544,0.42006 0.1470944,0.46199 0.1015129,0.96279 -0.1253081,1.39132 -0.00905,0.0181 -0.016458,0.0371 -0.022074,0.0565 -0.1839846,0.59254 -0.1221547,1.23523 0.1720442,1.7815 0.087015,0.16065 0.2873807,0.22097 0.4486228,0.13503 0.1625714,-0.0871 0.2231726,-0.28986 0.1350411,-0.45185 -0.2062634,-0.383 -0.2506564,-0.83132 -0.1272492,-1.24783 0.2932177,-0.57782 0.3488287,-1.25008 0.1519201,-1.86851 -0.1234236,-0.26429 -0.2997696,-0.25282 -0.4174579,-0.2162 z m 3.2468379,1.02772 c -0.5702612,0.1525 -1.1405575,0.30489 -1.7107345,0.45771 l 0.172048,0.64275 c 0.5690701,-0.15168 1.1379179,-0.30418 1.7068385,-0.45642 -0.024662,-0.23231 -0.1018144,-0.43877 -0.168152,-0.64404 z m 0.1012867,1.34846 c -0.4895559,0.13081 -0.9791168,0.26161 -1.4685722,0.39278 0.088145,0.34782 0.1903944,0.71836 0.2954024,1.05113 l 0.9439906,-0.25257 c -0.058382,-0.46914 0.075331,-0.79881 0.2291754,-1.19134 z m 8.7887,3.57728 c -1.175979,0 -2.141995,0.8643 -2.302837,1.99446 h 0.672609 c 0.155317,-0.75629 0.829821,-1.32963 1.630228,-1.32963 0.80041,0 1.472812,0.57334 1.627634,1.32963 h 0.672606 c -0.160459,-1.13016 -1.124259,-1.99446 -2.30024,-1.99446 z m -9.9722585,0.66483 c -0.8082008,0 -1.4779408,0.56827 -1.6308797,1.32963 h 0.6946847 c 0.1388968,-0.38486 0.5061083,-0.66483 0.936195,-0.66481 0.4300942,0 0.7960356,0.27995 0.9342514,0.66481 h 0.6940327 c -0.1524427,-0.76136 -0.8200783,-1.32963 -1.6282841,-1.32963 z m 9.9722585,0.66482 c -0.437351,0 -0.801836,0.27671 -0.938144,0.66481 h 1.873694 c -0.135629,-0.3881 -0.4982,-0.66481 -0.93555,-0.66481 z m -13.6287523,1.33028 v 0.97645 c 0,0.1235 0.02583,0.24075 0.066875,0.35058 H 20.059935 c 0.04122,-0.1098 0.06752,-0.2271 0.06752,-0.35058 v -0.97645 z m 0.801806,1.99251 c 0.3041001,1.87857 1.2415992,3.54036 2.5865544,4.76473 H 16.739088 c 1.344855,-1.2244 2.282404,-2.88632 2.586554,-4.76473 z m 14.5987163,0.58106 c 0.171071,0.0677 0.254589,0.26153 0.186333,0.43239 -0.22398,0.56618 -0.49273,1.04678 -0.787523,1.50883 -0.09816,0.15538 -0.303778,0.20163 -0.45901,0.10327 -0.156082,-0.0991 -0.2013,-0.30653 -0.100633,-0.46161 0.281343,-0.44096 0.524793,-0.87748 0.729092,-1.3939 0.110496,-0.20797 0.26087,-0.26131 0.431741,-0.18893 z m -1.543888,2.60603 c 0.128699,0.13192 0.125497,0.34338 -0.0072,0.47134 -0.222052,0.21598 -0.450616,0.41262 -0.682345,0.59405 -0.145063,0.11232 -0.353695,0.0859 -0.46615,-0.0591 -0.112908,-0.14439 -0.08764,-0.35292 0.05649,-0.46615 0.216115,-0.16921 0.425962,-0.34776 0.628459,-0.54472 0.173666,-0.16576 0.33411,-0.10239 0.4707,0.005 z m -9.8690276,2.2431 v 0.53498 c 0,0.55769 0.4609577,1.01541 1.0186491,1.01541 h 7.9375545 c 0.557689,0 1.016054,-0.45772 1.016054,-1.01541 v -0.53498 z"
       sodipodi:nodetypes="ccccccccccccccccccccccccccsccsccsccsccscccsccsccccccccccccccccccccccccccccccccccccccccccccccccccccccccccccccccsccsccssccscsccscccccccccccccccccccccsssscccsssscc" />
  </g>
</svg>
