<svg width="100" height="100" viewBox="0 0 100 100" fill="none" xmlns="http://www.w3.org/2000/svg">
<path d="M93.6621 18.7501H75.8769L77.6191 11.7852L85.1035 9.23638C86.6953 8.69537 87.6425 7.00396 87.1836 5.38677C87.0668 4.97996 86.8686 4.60111 86.601 4.2732C86.3334 3.94529 86.0019 3.67516 85.6268 3.47919C85.2517 3.28322 84.8406 3.1655 84.4186 3.13316C83.9966 3.10082 83.5724 3.15454 83.1718 3.29107L73.9921 6.41607C73.4978 6.58464 73.0536 6.87444 72.7001 7.25896C72.3466 7.64348 72.0952 8.11047 71.9687 8.61724L69.4355 18.7501H43.8378C42.1562 18.7501 40.7128 20.043 40.6289 21.7247C40.6085 22.1472 40.6741 22.5695 40.8218 22.9659C40.9695 23.3623 41.1961 23.7246 41.4879 24.0308C41.7797 24.3371 42.1307 24.5809 42.5195 24.7475C42.9083 24.9141 43.3269 25 43.75 25.0001H44.2871L44.4824 26.6915C44.5284 27.0865 44.718 27.4508 45.0151 27.7151C45.3122 27.9794 45.696 28.1253 46.0937 28.1251C53.7109 28.1251 60.4804 30.254 65.6484 34.2813C68.5229 36.4961 70.8531 39.3387 72.4609 42.5918C73.3609 44.4217 74.0251 46.3584 74.4375 48.3555C74.5196 48.7447 74.75 49.0866 75.08 49.3086C77.737 51.1114 79.697 53.7692 80.6343 56.8401C81.5716 59.9111 81.4298 63.2103 80.2324 66.1895C80.0931 66.5343 80.0827 66.9177 80.2031 67.2696C80.895 69.2524 81.2489 71.3374 81.25 73.4376C81.25 77.8008 79.7656 81.959 77.0703 85.1465C75.5422 86.9658 73.6199 88.4132 71.4492 89.379C71.0736 89.5444 70.7783 89.851 70.6269 90.2325C69.8157 92.3456 68.6703 94.3148 67.2343 96.0645C67.1746 96.1355 67.1363 96.2221 67.1239 96.314C67.1116 96.406 67.1257 96.4996 67.1647 96.5839C67.2036 96.6681 67.2658 96.7395 67.3438 96.7897C67.4219 96.8399 67.5126 96.8668 67.6054 96.8672H77.2168C79.57 96.8576 81.8343 95.9674 83.564 94.3718C85.2937 92.7762 86.3634 90.5909 86.5625 88.2461L93.2421 25.0001H93.75C94.1733 25.0005 94.5923 24.915 94.9816 24.7486C95.3709 24.5823 95.7223 24.3385 96.0146 24.0322C96.3068 23.7259 96.5338 23.3635 96.6817 22.9668C96.8296 22.5701 96.8953 22.1475 96.875 21.7247C96.7929 20.043 95.3437 18.7501 93.6621 18.7501Z" fill="white"/>
<path d="M21.2285 62.5C21.8449 62.4971 22.4557 62.6164 23.0256 62.8511C23.5955 63.0858 24.1132 63.4311 24.5488 63.8672L27.5781 66.8965C27.6507 66.9691 27.7368 67.0267 27.8317 67.0661C27.9265 67.1054 28.0282 67.1256 28.1309 67.1256C28.2335 67.1256 28.3352 67.1054 28.43 67.0661C28.5249 67.0267 28.611 66.9691 28.6836 66.8965L31.707 63.8672C32.1426 63.4311 32.6604 63.0858 33.2303 62.8511C33.8002 62.6164 34.411 62.4971 35.0273 62.5H73.4219C73.6271 62.5021 73.8307 62.4637 74.021 62.3871C74.2114 62.3104 74.3848 62.1971 74.5313 62.0534C74.6779 61.9098 74.7947 61.7387 74.8751 61.5499C74.9555 61.3611 74.998 61.1583 75 60.9531V60.9375C74.9978 59.1372 74.375 57.3926 73.2365 55.998C72.098 54.6033 70.5135 53.6438 68.75 53.2812C68.5898 47.4824 66.2109 42.6289 61.8145 39.2188C57.748 36.0469 52.3145 34.375 46.0938 34.375H32.0312C18.707 34.375 9.68164 41.9473 9.375 53.2812C7.61155 53.6438 6.02703 54.6033 4.88853 55.998C3.75004 57.3926 3.1272 59.1372 3.125 60.9375C3.125 61.3519 3.28962 61.7493 3.58265 62.0424C3.87567 62.3354 4.2731 62.5 4.6875 62.5H21.2285Z" fill="white"/>
<path d="M36.3164 68.75C36.1112 68.7499 35.9079 68.7902 35.7182 68.8686C35.5285 68.947 35.3562 69.062 35.2109 69.2071L30.8867 73.5332C30.1542 74.2655 29.1608 74.6769 28.125 74.6769C27.0892 74.6769 26.0958 74.2655 25.3633 73.5332L21.0391 69.2071C20.8938 69.062 20.7215 68.947 20.5318 68.8686C20.3421 68.7902 20.1388 68.7499 19.9336 68.75H6.37891C5.64484 68.7468 4.93325 69.0032 4.36996 69.4739C3.80667 69.9446 3.42796 70.5993 3.30078 71.3223C3.18345 72.0213 3.12465 72.7288 3.125 73.4375C3.125 79.4121 7.25195 84.2793 12.3555 84.375C12.8301 87.3282 13.9785 89.9961 15.707 92.084C18.2637 95.1719 21.9805 96.875 26.1719 96.875H51.9531C56.1445 96.875 59.8613 95.1719 62.418 92.0801C64.1465 89.9922 65.2949 87.3243 65.7695 84.3711C70.873 84.2793 75 79.4121 75 73.4336C75.0004 72.7249 74.9416 72.0174 74.8242 71.3184C74.6962 70.5961 74.3172 69.9423 73.7539 69.4724C73.1907 69.0024 72.4796 68.7466 71.7461 68.75H36.3164Z" fill="white"/>
</svg>
