<svg width="120" height="120" viewBox="0 0 120 120" fill="none" xmlns="http://www.w3.org/2000/svg">
<path d="M95.1562 17.2104H84.375V13.0455C84.375 12.3406 84.095 11.6646 83.5965 11.1662C83.0981 10.6677 82.4221 10.3877 81.7172 10.3877C81.0123 10.3877 80.3363 10.6677 79.8378 11.1662C79.3394 11.6646 79.0594 12.3406 79.0594 13.0455V17.2104H41.2195V13.0455C41.2195 12.3406 40.9395 11.6646 40.4411 11.1662C39.9426 10.6677 39.2666 10.3877 38.5617 10.3877C37.8568 10.3877 37.1808 10.6677 36.6824 11.1662C36.1839 11.6646 35.9039 12.3406 35.9039 13.0455V17.2104H25.1391C22.1822 17.2134 19.3472 18.3888 17.2555 20.4787C15.1638 22.5687 13.9861 25.4027 13.9805 28.3596V98.3768C13.9842 101.335 15.1611 104.171 17.253 106.262C19.3449 108.354 22.181 109.53 25.1391 109.533H95.1562C98.1139 109.529 100.949 108.353 103.041 106.261C105.132 104.17 106.309 101.334 106.312 98.3768V28.3596C106.307 25.4031 105.13 22.5694 103.038 20.4796C100.947 18.3897 98.1127 17.2141 95.1562 17.2104ZM25.1391 22.526H35.9039V26.6908C35.9039 27.3957 36.1839 28.0717 36.6824 28.5702C37.1808 29.0686 37.8568 29.3486 38.5617 29.3486C39.2666 29.3486 39.9426 29.0686 40.4411 28.5702C40.9395 28.0717 41.2195 27.3957 41.2195 26.6908V22.526H79.0641V26.6908C79.0641 27.3957 79.3441 28.0717 79.8425 28.5702C80.341 29.0686 81.017 29.3486 81.7219 29.3486C82.4268 29.3486 83.1028 29.0686 83.6012 28.5702C84.0997 28.0717 84.3797 27.3957 84.3797 26.6908V22.526H95.1562C96.7009 22.5334 98.1802 23.1504 99.2722 24.2429C100.364 25.3354 100.981 26.8149 100.988 28.3596V35.8596H19.2961V28.3596C19.3029 26.8129 19.921 25.3316 21.0155 24.2388C22.1101 23.146 23.5924 22.5303 25.1391 22.526ZM95.1562 104.217H25.1391C23.5911 104.213 22.1078 103.596 21.0131 102.502C19.9183 101.408 19.301 99.9247 19.2961 98.3768V41.1752H100.988V98.3768C100.983 99.9226 100.367 101.404 99.2747 102.498C98.1824 103.592 96.7021 104.21 95.1562 104.217Z" fill="white"/>
<path d="M42.0703 49.3945H28.221C27.8721 49.3942 27.5266 49.4627 27.2041 49.596C26.8817 49.7293 26.5887 49.9249 26.3418 50.1715C26.095 50.4181 25.8992 50.7109 25.7656 51.0333C25.632 51.3556 25.5632 51.7011 25.5632 52.05V65.9016C25.5632 66.6065 25.8433 67.2825 26.3417 67.7809C26.8401 68.2794 27.5162 68.5594 28.221 68.5594H42.0703C42.7752 68.5594 43.4512 68.2794 43.9496 67.7809C44.4481 67.2825 44.7281 66.6065 44.7281 65.9016V52.05C44.7275 51.3455 44.4472 50.6701 43.9488 50.1722C43.4504 49.6742 42.7748 49.3945 42.0703 49.3945ZM39.4125 63.2437H30.8789V54.7078H39.4125V63.2437Z" fill="white"/>
<path d="M66.832 49.3945H52.9828C52.2783 49.3945 51.6026 49.6742 51.1042 50.1722C50.6059 50.6701 50.3256 51.3455 50.325 52.05V65.9016C50.325 66.6065 50.605 67.2825 51.1034 67.7809C51.6018 68.2794 52.2779 68.5594 52.9828 68.5594H66.832C67.5369 68.5594 68.2129 68.2794 68.7113 67.7809C69.2098 67.2825 69.4898 66.6065 69.4898 65.9016V52.05C69.4898 51.7011 69.421 51.3556 69.2874 51.0333C69.1538 50.7109 68.958 50.4181 68.7112 50.1715C68.4644 49.9249 68.1714 49.7293 67.8489 49.596C67.5265 49.4627 67.1809 49.3942 66.832 49.3945ZM64.1765 63.2437H55.6406V54.7078H64.1765V63.2437Z" fill="white"/>
<path d="M91.7789 49.3945H77.9297C77.2252 49.3945 76.5495 49.6742 76.0511 50.1722C75.5528 50.6701 75.2725 51.3455 75.2719 52.05V65.9016C75.2719 66.6065 75.5519 67.2825 76.0503 67.7809C76.5487 68.2794 77.2248 68.5594 77.9297 68.5594H91.7789C92.4838 68.5594 93.1598 68.2794 93.6582 67.7809C94.1567 67.2825 94.4367 66.6065 94.4367 65.9016V52.05C94.4367 51.7011 94.3679 51.3556 94.2343 51.0333C94.1007 50.7109 93.9049 50.4181 93.6581 50.1715C93.4113 49.9249 93.1182 49.7293 92.7958 49.596C92.4734 49.4627 92.1278 49.3942 91.7789 49.3945ZM89.1234 63.2437H80.5875V54.7078H89.1234V63.2437Z" fill="white"/>
<path d="M42.0703 76.5728H28.221C27.5162 76.5728 26.8401 76.8528 26.3417 77.3512C25.8433 77.8496 25.5632 78.5257 25.5632 79.2306V93.0798C25.5632 93.7847 25.8433 94.4607 26.3417 94.9591C26.8401 95.4576 27.5162 95.7376 28.221 95.7376H42.0703C42.7752 95.7376 43.4512 95.4576 43.9496 94.9591C44.4481 94.4607 44.7281 93.7847 44.7281 93.0798V79.2306C44.7281 78.8815 44.6593 78.5359 44.5258 78.2135C44.3922 77.891 44.1964 77.598 43.9496 77.3512C43.7028 77.1044 43.4098 76.9086 43.0874 76.7751C42.7649 76.6415 42.4193 76.5728 42.0703 76.5728ZM39.4125 90.422H30.8789V81.8884H39.4125V90.422Z" fill="white"/>
<path d="M66.832 76.5728H52.9828C52.2779 76.5728 51.6018 76.8528 51.1034 77.3512C50.605 77.8496 50.325 78.5257 50.325 79.2306V93.0798C50.325 93.7847 50.605 94.4607 51.1034 94.9591C51.6018 95.4576 52.2779 95.7376 52.9828 95.7376H66.832C67.5369 95.7376 68.2129 95.4576 68.7113 94.9591C69.2098 94.4607 69.4898 93.7847 69.4898 93.0798V79.2306C69.4898 78.5257 69.2098 77.8496 68.7113 77.3512C68.2129 76.8528 67.5369 76.5728 66.832 76.5728ZM64.1765 90.422H55.6406V81.8884H64.1765V90.422Z" fill="white"/>
<path d="M91.7789 76.5728H77.9297C77.2248 76.5728 76.5487 76.8528 76.0503 77.3512C75.5519 77.8496 75.2719 78.5257 75.2719 79.2306V93.0798C75.2719 93.7847 75.5519 94.4607 76.0503 94.9591C76.5487 95.4576 77.2248 95.7376 77.9297 95.7376H91.7789C92.4838 95.7376 93.1598 95.4576 93.6582 94.9591C94.1567 94.4607 94.4367 93.7847 94.4367 93.0798V79.2306C94.4367 78.8815 94.3679 78.5359 94.2344 78.2135C94.1008 77.891 93.905 77.598 93.6582 77.3512C93.4114 77.1044 93.1184 76.9086 92.796 76.7751C92.4735 76.6415 92.1279 76.5728 91.7789 76.5728ZM89.1234 90.422H80.5875V81.8884H89.1234V90.422Z" fill="white"/>
</svg>
