<svg width="150" height="150" viewBox="0 0 150 150" fill="none" xmlns="http://www.w3.org/2000/svg">
<path d="M72.3166 26.1726C72.3166 21.8258 68.7802 18.2891 64.4331 18.2891C60.0875 18.2891 56.5522 21.8255 56.5522 26.1726C56.5522 30.5196 60.0875 34.0561 64.4331 34.0561C68.7802 34.0561 72.3166 30.5196 72.3166 26.1726ZM59.4822 26.1726C59.4822 23.4412 61.7032 21.2188 64.4334 21.2188C67.1647 21.2188 69.3872 23.4409 69.3872 26.1726C69.3872 28.9042 67.165 31.1264 64.4334 31.1264C61.7032 31.1264 59.4822 28.9042 59.4822 26.1726Z" fill="white"/>
<path d="M65.5299 48.9513C66.8849 47.4205 78.7704 33.7822 78.7704 26.3347C78.7704 18.4307 72.3385 12 64.4331 12C56.5291 12 50.0984 18.4304 50.0984 26.3347C50.0984 33.7819 61.9812 47.4205 63.3362 48.951L64.4328 50.1899L65.5299 48.9513ZM53.0284 26.335C53.0284 20.0464 58.1445 14.93 64.4334 14.93C70.7234 14.93 75.841 20.0461 75.841 26.335C75.841 31.2085 68.4081 41.0259 64.4334 45.7377C60.4592 41.0268 53.0284 31.212 53.0284 26.335Z" fill="white"/>
<path d="M27.1481 94.6436H13.0288V97.5732H27.1481V94.6436Z" fill="white"/>
<path d="M9.61543 94.6436H5V97.5732H9.61543V94.6436Z" fill="white"/>
<path d="M27.1479 102.646H18.626V105.576H27.1479V102.646Z" fill="white"/>
<path d="M56.1773 72.7905H48.6705V75.7202H56.1773V72.7905Z" fill="white"/>
<path d="M12.1848 43.09V70.9827H15.394H23.6935L39.1643 82.6221C39.118 83.029 39.0799 83.4415 39.0524 83.8601C34.6338 87.7001 31.9004 92.9706 31.9004 98.7796V104.926H37.2175C37.6541 109.707 40.2038 113.883 43.9227 116.514H23.4017V119.444H77.8939V116.514H62.332C64.1903 115.199 65.7562 113.5 66.9134 111.53H76.754L81.4479 109.108C82.7419 109.812 84.2241 110.212 85.7973 110.212H107.005L107.697 110.212L108.136 109.678C108.162 109.647 108.655 109.058 109.567 108.12C110.724 111.612 113.058 114.555 116.067 116.514H91.3705V119.444H144.282V116.514H133.456C137.829 113.66 140.728 108.727 140.728 103.127C140.728 99.5788 139.534 96.1476 137.394 93.3676C138.924 93.1716 140.498 93.0638 142.112 93.0638C143.34 93.0638 143.747 92.2268 143.842 91.9701C144.331 90.6556 143.171 89.6551 141.415 88.1407C141.019 87.7997 140.646 87.478 140.43 87.2606C136.904 83.7318 132.464 81.4558 127.648 80.6393L115.643 51.2199H119.262V49.8465H119.562C122.139 49.8465 124.236 47.75 124.236 45.173V45.0726C124.236 42.4956 122.139 40.3988 119.562 40.3988H119.262V39.0254H109.128C105.763 39.0254 103.025 41.7635 103.025 45.1288V47.9647C103.025 48.0746 103.031 48.1827 103.041 48.2896H101.256L95.0249 42.0579H87.706V44.9876H93.8115L100.043 51.2193H105.921L102.669 61.0733L107.06 87.0825C104.901 89.1904 103.136 91.7085 101.899 94.5195H85.2682C84.4792 92.9023 83.8406 91.2184 83.3592 89.4755C81.198 81.6441 82.8489 74.7274 84.2537 70.872C85.7821 70.487 86.9179 69.1048 86.9179 67.4589C86.9179 62.6615 83.015 58.7586 78.2176 58.7586H48.0629C44.6929 58.7586 41.951 61.5002 41.951 64.8705C41.951 66.0368 42.2853 67.1243 42.8548 68.0527H40.0775V43.09H12.1848ZM15.1145 68.053V46.0197H37.1478V68.053H15.394H15.1145ZM34.8301 98.7793C34.8301 88.6771 44.6279 80.4579 56.6709 80.4579H62.2054C70.1739 80.4579 76.6567 85.8626 76.6567 92.506V99.5929V101.058V101.996H69.0424C68.3006 93.868 61.4472 87.4792 53.1298 87.4792C44.811 87.4792 37.9564 93.868 37.2146 101.996H34.8304L34.8301 98.7793ZM40.1619 101.996C40.8925 95.4866 46.4282 90.4089 53.1295 90.4089C59.8297 90.4089 65.3642 95.4866 66.0946 101.996H40.1619ZM57.4491 104.926C56.8368 106.726 55.1337 108.026 53.1295 108.026C51.1242 108.026 49.4203 106.726 48.8077 104.926H57.4491ZM53.1266 116.514C46.4264 116.514 40.8919 111.436 40.1616 104.926H45.7769C46.4604 108.36 49.4967 110.956 53.1295 110.956C56.7609 110.956 59.7963 108.36 60.4795 104.926H66.0946C65.9499 106.217 65.6173 107.451 65.1228 108.6H59.9305V111.53H63.3744C60.9823 114.562 57.2791 116.514 53.1266 116.514ZM76.0429 108.6H68.2558C68.6545 107.43 68.922 106.2 69.0383 104.926H77.5151C77.8872 105.721 78.3694 106.453 78.9421 107.104L76.0429 108.6ZM137.799 103.126C137.799 110.322 131.943 116.176 124.746 116.176C118.581 116.176 113.224 111.77 111.972 105.807C113.424 104.497 115.263 102.978 117.441 101.455C117.318 101.993 117.251 102.551 117.251 103.126C117.251 107.259 120.613 110.621 124.746 110.621C128.88 110.621 132.242 107.259 132.242 103.126C132.242 99.8747 130.161 97.1015 127.262 96.0655C129.38 95.2057 131.64 94.475 134.03 93.9509C136.433 96.3898 137.799 99.6931 137.799 103.126ZM121.464 99.9597L123.445 103.798L126.048 102.454L124.067 98.6158C124.289 98.5824 124.515 98.5596 124.746 98.5596C127.264 98.5596 129.312 100.608 129.312 103.126C129.312 105.644 127.264 107.692 124.746 107.692C122.229 107.692 120.18 105.644 120.18 103.126C120.18 101.896 120.671 100.781 121.464 99.9597ZM119.563 43.3285C120.524 43.3285 121.307 44.1107 121.307 45.0726V45.173C121.307 46.1346 120.524 46.9168 119.563 46.9168H119.262V43.3285H119.563ZM105.955 47.965V45.1291C105.955 43.3789 107.379 41.9554 109.129 41.9554H116.332V48.2902H109.099H106.28C106.101 48.2899 105.955 48.144 105.955 47.965ZM105.679 61.3021L109.005 51.2211H112.479L124.351 80.3135C124.113 80.3067 123.876 80.2959 123.637 80.2959C118.457 80.2959 113.61 81.9957 109.66 84.8858L105.679 61.3021ZM123.637 83.2256C129.196 83.2256 134.423 85.3938 138.356 89.3302C138.616 89.5909 138.971 89.9003 139.352 90.2302C129.353 90.9269 121.133 95.2748 115.832 98.9715C110.793 102.486 107.496 105.973 106.334 107.282H85.7973C82.8805 107.282 80.4275 105.257 79.7633 102.536H90.7611L90.7494 102.522L102.843 102.521L103.014 101.253C104.403 90.9755 113.268 83.2256 123.637 83.2256ZM100.834 97.4495C100.631 98.1506 100.457 98.8645 100.318 99.592L88.41 99.5926C87.8768 98.8959 87.3779 98.1808 86.9121 97.4498H100.834V97.4495ZM84.8097 99.5926L79.5861 99.5929V92.506C79.5861 84.2475 71.789 77.5282 62.2051 77.5282H56.6707C51.3099 77.5282 46.3458 79.0016 42.2874 81.4944C43.1361 76.6561 45.2917 72.9049 46.6037 70.9836H81.1168C79.6954 75.3477 78.3597 82.3707 80.5356 90.2551C81.4532 93.58 82.887 96.7095 84.8097 99.5926ZM48.0629 61.6886H78.2179C81.3999 61.6886 83.9885 64.2772 83.9885 67.4592C83.9885 67.7864 83.7222 68.053 83.3947 68.053H48.0629C46.3083 68.053 44.8807 66.6254 44.8807 64.8708C44.8807 63.1162 46.3083 61.6886 48.0629 61.6886ZM43.1393 70.9827C41.9472 73.0065 40.5609 75.892 39.7318 79.3827L28.5667 70.9827H40.0775H43.1393Z" fill="white"/>
<path d="M34.5345 49.5117H26.131V52.4414H34.5345V49.5117Z" fill="white"/>
<path d="M87.0735 116.514H81.9984V119.443H87.0735V116.514Z" fill="white"/>
<path d="M20.0326 116.514H15.394V119.443H20.0326V116.514Z" fill="white"/>
</svg>
