<svg width="90" height="90" viewBox="0 0 90 90" fill="none" xmlns="http://www.w3.org/2000/svg">
<path d="M35.7914 27.9162C39.6356 26.8855 43.4796 25.8541 47.3235 24.8235C48.414 23.538 48.8889 21.76 48.4234 20.0228L79.7123 11.6378C81.8178 11.0736 83.0948 8.87259 82.5306 6.76714C82.0949 5.01034 79.6601 3.46406 77.66 3.96166L46.3582 12.3439C45.6047 9.53162 42.685 7.843 39.8727 8.59651L37.3572 9.26936C37.5327 11.7417 36.6381 13.0446 35.996 15.1263C36.8903 14.8863 37.7845 14.6465 38.6797 14.4068C39.5407 14.2353 40.1864 14.7879 40.305 15.3359C40.4957 16.0444 40.0746 16.7729 39.3655 16.9612C38.1707 17.2812 36.9759 17.6012 35.7811 17.9213C35.87 18.8863 36.1551 19.7036 36.4154 20.499L40.049 19.5233C40.9141 19.3527 41.5128 19.7773 41.6743 20.4628C41.8634 21.1704 41.4426 21.8971 40.7348 22.0854L36.8502 23.1284C36.7534 24.8754 36.4293 26.5814 35.7914 27.9162ZM30.7604 11.0371C30.8388 11.9702 30.8786 12.7951 30.245 14.3117C29.6115 15.8284 29.5797 18.2174 30.4144 20.5682C31.249 22.9191 31.0288 25.5947 29.8546 27.9004C29.4622 29.407 29.7312 30.5102 30.1315 31.8057C30.6526 33.2002 30.8457 34.838 30.706 36.5313C28.5246 35.22 25.9801 34.4584 23.2551 34.4584C15.6672 34.4584 9.41845 40.295 8.74683 47.7115H14.0781C14.7263 43.2288 18.5983 39.7612 23.2551 39.7612C27.912 39.7612 31.7751 43.2288 32.4218 47.7115H38.2008C38.6646 46.9239 39.5143 46.3813 40.4808 46.3813C41.4471 46.3813 42.2951 46.9243 42.7583 47.7115H45.5973C45.0124 45.4186 42.9641 43.7312 40.4808 43.7312C39.2376 43.7312 38.1181 44.1719 37.2174 44.8828C36.9545 44.0003 36.6071 43.1561 36.1899 42.3518C37.4312 41.5539 38.9039 41.081 40.4808 41.081C44.4044 41.081 47.6742 43.9622 48.3095 47.7115H53.6486C53.4947 46.2065 53.0905 44.7736 52.4762 43.4568C54.482 39.686 58.4496 37.1085 63.0068 37.1085C69.1299 37.1085 74.1905 41.7606 74.852 47.7115H80.1652C79.4859 38.8309 72.0585 31.8083 63.0068 31.8083C57.2699 31.8083 52.1807 34.625 49.0497 38.9537C48.2623 38.1813 45.6846 36.852 45.6801 36.8497C45.8408 35.7801 45.7778 34.6806 45.4472 33.6277C44.8429 32.1145 44.1815 30.3123 44.0238 28.4517C43.0708 28.7064 42.1171 28.9603 41.1641 29.2152C41.1286 30.364 41.5297 31.1663 41.9948 32.2198C42.5279 33.4312 42.8312 34.7133 42.9161 36.0086C42.126 35.8599 41.3113 35.7806 40.4783 35.7806C40.3948 35.7806 40.3156 35.7899 40.2324 35.7899C40.135 34.9346 39.9232 34.0901 39.5699 33.2873C38.916 32.2025 38.694 31.0462 38.5373 29.9203C37.5677 30.1798 36.598 30.4395 35.6284 30.6993C35.674 31.4539 36.0578 32.0976 36.3711 32.8059C36.8474 33.8884 37.1243 35.0308 37.2433 36.1858C36.3439 36.413 35.4794 36.73 34.663 37.1304C34.3262 33.6963 33.0658 32.3475 32.9015 29.6614C32.9042 28.6914 33.0263 27.8469 33.6549 26.4702C34.2834 25.0935 34.4548 23.0972 33.9009 21.5201C33.347 19.943 33.0778 18.4586 33.1243 16.3275C33.1956 13.0528 34.8357 12.0726 34.6681 9.99208L30.7604 11.0371ZM28.1077 11.7487L19.9684 13.9278C19.2649 14.1207 18.8496 14.8461 19.0393 15.5505L20.0642 19.3859C22.4359 18.7496 24.8087 18.1172 27.1812 17.4836C27.1326 15.8473 27.4259 14.2051 28.087 12.6752L28.0664 12.7254C28.0544 12.7573 28.0946 12.2952 28.1077 11.7487ZM9.19973 16.0293C8.4968 16.2506 8.10957 17.0031 8.33793 17.7038C8.92428 19.5454 8.74258 21.5416 7.83847 23.2498C7.8024 23.322 7.77287 23.3978 7.75048 23.4751C7.01709 25.8371 7.26355 28.399 8.4363 30.5766C8.78321 31.2185 9.58384 31.4592 10.2272 31.1149C10.8743 30.7669 11.1146 29.9587 10.7629 29.3136C9.9411 27.7876 9.76464 26.0017 10.2557 24.342C11.4255 22.0382 11.6464 19.3572 10.8613 16.8912C10.371 15.8397 9.68166 15.9272 9.19973 16.0293ZM14.6268 16.0293C13.9249 16.2517 13.539 17.0039 13.7676 17.7038C14.3539 19.5454 14.1722 21.5416 13.268 23.2498C13.232 23.322 13.2024 23.3978 13.1801 23.4751C12.4466 25.8371 12.6931 28.399 13.8659 30.5766C14.2127 31.2169 15.0114 31.4574 15.6542 31.1149C16.3022 30.7677 16.5438 29.9593 16.1925 29.3136C15.3703 27.7869 15.1933 25.9998 15.6852 24.3395C16.8541 22.0361 17.0757 19.3564 16.2908 16.8912C15.7988 15.8377 15.0959 15.8833 14.6268 16.0293ZM27.5694 20.126C25.2962 20.7339 23.0229 21.3414 20.75 21.9506L21.4358 24.5127C23.7043 23.9081 25.9718 23.3002 28.2397 22.6933C28.1414 21.7673 27.8338 20.9442 27.5694 20.126ZM27.9731 25.5013C26.0216 26.0228 24.0701 26.5441 22.1191 27.067C22.4704 28.4535 22.878 29.9306 23.2966 31.2571L27.0596 30.2502C26.8268 28.3801 27.3599 27.066 27.9731 25.5013ZM63.0068 39.7611C58.3191 39.7611 54.4683 43.2064 53.8272 47.7114H56.5084C57.1275 44.6967 59.8162 42.4113 63.0068 42.4113C66.1974 42.4113 68.8778 44.6967 69.4949 47.7114H72.1761C71.5364 43.2064 67.6945 39.7611 63.0068 39.7611ZM23.2552 42.4113C20.0335 42.4113 17.3638 44.6765 16.7541 47.7114H19.5233C20.077 46.1773 21.5408 45.0613 23.2552 45.0614C24.9696 45.0614 26.4284 46.1773 26.9793 47.7114H29.7459C29.1382 44.6765 26.4769 42.4113 23.2552 42.4113ZM63.0068 45.0614C61.2634 45.0614 59.8105 46.1644 59.2672 47.7114H66.7361C66.1955 46.1644 64.7502 45.0614 63.0068 45.0614ZM8.6796 50.3642V54.2565C8.6796 54.7488 8.78257 55.2162 8.94618 55.6541H79.9634C80.1277 55.2164 80.2325 54.7488 80.2325 54.2565V50.3642H8.6796ZM11.8758 58.3067C13.088 65.7951 16.8251 72.4194 22.1864 77.3H66.7258C72.0866 72.4193 75.8239 65.7945 77.0363 58.3067H11.8758ZM70.0695 60.623C70.7514 60.8928 71.0843 61.6655 70.8122 62.3466C69.9194 64.6035 68.8481 66.5193 67.673 68.3611C67.2817 68.9805 66.4621 69.1648 65.8433 68.7728C65.2211 68.3777 65.0409 67.5509 65.4421 66.9327C66.5636 65.1749 67.5341 63.4349 68.3485 61.3763C68.7889 60.5473 69.3883 60.3344 70.0695 60.623ZM63.9152 71.0112C64.4282 71.5371 64.4155 72.38 63.8865 72.8901C63.0013 73.7511 62.0902 74.5348 61.1665 75.258C60.5883 75.7058 59.7566 75.6005 59.3083 75.0225C58.8583 74.447 58.959 73.6157 59.5335 73.1643C60.395 72.4898 61.2315 71.7781 62.0387 70.993C62.731 70.3322 63.3707 70.5832 63.9152 71.0112ZM24.5751 79.9527V82.0853C24.5751 84.3083 26.4126 86.1329 28.6356 86.1329H60.2765C62.4996 86.1329 64.3267 84.3083 64.3267 82.0853V79.9527H24.5751Z" fill="white"/>
</svg>
