<svg width="75" height="75" viewBox="0 0 75 75" fill="none" xmlns="http://www.w3.org/2000/svg">
<g clip-path="url(#clip0_363_237)">
<path d="M24.8586 0.131769C21.5188 -0.102606 18.7209 2.18255 17.9006 5.21478L16.1721 11.7187C16.2453 11.7187 16.3332 11.7187 16.4064 11.7187C42.2902 11.7187 63.2814 32.7099 63.2814 58.5937C63.2814 58.6669 63.2814 58.7548 63.2814 58.8281L69.7854 57.0995C72.8322 56.2939 75.1027 53.4814 74.8684 50.1415C73.0227 23.3642 51.6359 1.97747 24.8586 0.131769ZM58.5646 60.0878C58.5793 59.5898 58.5939 59.0917 58.5939 58.5937C58.5939 35.288 39.7121 16.4062 16.4064 16.4062C15.9084 16.4062 15.4104 16.4208 14.9123 16.4355L0.073442 72.0556C-0.146285 72.8613 0.0880904 73.7255 0.674028 74.3115C1.25997 74.8974 2.12422 75.1318 2.92989 74.9121L58.5646 60.0878ZM25.7815 30.4687C27.0247 30.4687 28.2169 30.9625 29.096 31.8416C29.9751 32.7207 30.469 33.913 30.469 35.1562C30.469 36.3994 29.9751 37.5917 29.096 38.4708C28.2169 39.3498 27.0247 39.8437 25.7815 39.8437C24.5382 39.8437 23.346 39.3498 22.4669 38.4708C21.5878 37.5917 21.094 36.3994 21.094 35.1562C21.094 33.913 21.5878 32.7207 22.4669 31.8416C23.346 30.9625 24.5382 30.4687 25.7815 30.4687ZM35.1565 49.2187C35.1565 47.9755 35.6503 46.7832 36.5294 45.9041C37.4085 45.0251 38.6007 44.5312 39.8439 44.5312C41.0872 44.5312 42.2794 45.0251 43.1585 45.9041C44.0376 46.7832 44.5314 47.9755 44.5314 49.2187C44.5314 50.4619 44.0376 51.6542 43.1585 52.5333C42.2794 53.4123 41.0872 53.9062 39.8439 53.9062C38.6007 53.9062 37.4085 53.4123 36.5294 52.5333C35.6503 51.6542 35.1565 50.4619 35.1565 49.2187ZM14.0627 56.2499C14.0627 55.0067 14.5566 53.8145 15.4356 52.9354C16.3147 52.0563 17.507 51.5624 18.7502 51.5624C19.9934 51.5624 21.1857 52.0563 22.0648 52.9354C22.9438 53.8145 23.4377 55.0067 23.4377 56.2499C23.4377 57.4931 22.9438 58.6854 22.0648 59.5645C21.1857 60.4436 19.9934 60.9374 18.7502 60.9374C17.507 60.9374 16.3147 60.4436 15.4356 59.5645C14.5566 58.6854 14.0627 57.4931 14.0627 56.2499Z" fill="white"/>
</g>
<defs>
<clipPath id="clip0_363_237">
<rect width="75" height="75" fill="white"/>
</clipPath>
</defs>
</svg>
