<svg width="76" height="76" viewBox="0 0 76 76" fill="none" xmlns="http://www.w3.org/2000/svg">
<g clip-path="url(#clip0_365_253)">
<path d="M41.4901 2.76623C40.8051 1.15274 39.35 0.122771 37.7484 0.11774C36.1469 0.112708 34.6983 1.13355 33.9902 2.74266L25.5569 22.0961L6.84935 25.1429C5.28603 25.4016 3.98008 26.628 3.49302 28.311C3.00596 29.9941 3.39074 31.8557 4.50662 33.1043L18.0268 48.2494L14.7567 69.582C14.4907 71.339 15.1361 73.1281 16.4219 74.1722C17.7077 75.2163 19.413 75.3535 20.8219 74.5229L37.5591 64.5413L54.2332 74.6279C55.6368 75.4673 57.3429 75.3554 58.6353 74.3048C59.9276 73.2542 60.5842 71.4838 60.3293 69.7252L57.1803 48.3724L70.7954 33.3125C71.919 32.071 72.3285 30.2119 71.839 28.5258C71.3495 26.8396 70.0644 25.6051 68.5027 25.3366L49.8016 22.1723L41.4901 2.76623Z" fill="white"/>
</g>
<defs>
<clipPath id="clip0_365_253">
<rect x="0.235596" width="75" height="75" rx="8" transform="rotate(0.18 0.235596 0)" fill="white"/>
</clipPath>
</defs>
</svg>
