<svg width="101" height="101" viewBox="0 0 101 101" fill="none" xmlns="http://www.w3.org/2000/svg">
<g clip-path="url(#clip0_365_249)">
<path d="M55.3202 3.68846C54.4068 1.53715 52.4667 0.163858 50.3313 0.157149C48.1959 0.150441 46.2645 1.51157 45.3203 3.65705L34.0759 29.4617L9.1325 33.524C7.04808 33.869 5.30682 35.5042 4.65741 37.7482C4.00799 39.9923 4.52103 42.4744 6.00886 44.1392L24.0358 64.3327L19.6756 92.7761C19.321 95.1188 20.1816 97.5043 21.8959 98.8964C23.6103 100.289 25.8841 100.471 27.7626 99.3641L50.0788 86.0552L72.311 99.504C74.1824 100.623 76.4572 100.474 78.1804 99.0733C79.9035 97.6724 80.779 95.3119 80.4392 92.967L76.2404 64.4967L94.3938 44.4169C95.8921 42.7614 96.4381 40.2827 95.7854 38.0345C95.1328 35.7864 93.4192 34.1403 91.337 33.7822L66.4022 29.5633L55.3202 3.68846Z" fill="white"/>
</g>
<defs>
<clipPath id="clip0_365_249">
<rect x="0.314209" width="100" height="100" rx="8" transform="rotate(0.18 0.314209 0)" fill="white"/>
</clipPath>
</defs>
</svg>
