<svg width="265" height="101" viewBox="0 0 265 101" fill="none" xmlns="http://www.w3.org/2000/svg">
<g clip-path="url(#clip0_479_65)">
<path d="M137.32 3.68846C136.407 1.53715 134.467 0.163858 132.331 0.157149C130.196 0.150441 128.265 1.51157 127.32 3.65705L116.076 29.4617L91.1325 33.524C89.0481 33.869 87.3068 35.5042 86.6574 37.7482C86.008 39.9923 86.521 42.4744 88.0089 44.1392L106.036 64.3327L101.676 92.7761C101.321 95.1188 102.182 97.5043 103.896 98.8964C105.61 100.289 107.884 100.471 109.763 99.3641L132.079 86.0552L154.311 99.504C156.182 100.623 158.457 100.474 160.18 99.0733C161.904 97.6724 162.779 95.3119 162.439 92.967L158.24 64.4967L176.394 44.4169C177.892 42.7614 178.438 40.2827 177.785 38.0345C177.133 35.7864 175.419 34.1403 173.337 33.7822L148.402 29.5633L137.32 3.68846Z" fill="white"/>
</g>
<g clip-path="url(#clip1_479_65)">
<path d="M230.49 24.7662C229.805 23.1527 228.35 22.1228 226.748 22.1177C225.147 22.1127 223.698 23.1336 222.99 24.7427L214.557 44.0961L195.849 47.1429C194.286 47.4016 192.98 48.628 192.493 50.311C192.006 51.9941 192.391 53.8557 193.507 55.1043L207.027 70.2494L203.757 91.582C203.491 93.339 204.136 95.1281 205.422 96.1722C206.708 97.2163 208.413 97.3535 209.822 96.5229L226.559 86.5413L243.233 96.6279C244.637 97.4673 246.343 97.3554 247.635 96.3048C248.928 95.2542 249.584 93.4838 249.329 91.7252L246.18 70.3724L259.795 55.3125C260.919 54.071 261.329 52.2119 260.839 50.5258C260.35 48.8396 259.064 47.6051 257.503 47.3366L238.802 44.1723L230.49 24.7662Z" fill="white"/>
</g>
<g clip-path="url(#clip2_479_65)">
<path d="M41.4901 24.7662C40.8051 23.1527 39.35 22.1228 37.7484 22.1177C36.1469 22.1127 34.6983 23.1336 33.9902 24.7427L25.5569 44.0961L6.84935 47.1429C5.28603 47.4016 3.98008 48.628 3.49302 50.311C3.00596 51.9941 3.39074 53.8557 4.50662 55.1043L18.0268 70.2494L14.7567 91.582C14.4907 93.339 15.1361 95.1281 16.4219 96.1722C17.7077 97.2163 19.413 97.3535 20.8219 96.5229L37.5591 86.5413L54.2332 96.6279C55.6368 97.4673 57.3429 97.3554 58.6353 96.3048C59.9276 95.2542 60.5842 93.4838 60.3293 91.7252L57.1803 70.3724L70.7954 55.3125C71.919 54.0709 72.3285 52.2119 71.839 50.5258C71.3495 48.8396 70.0644 47.6051 68.5027 47.3366L49.8016 44.1723L41.4901 24.7662Z" fill="white"/>
</g>
<defs>
<clipPath id="clip0_479_65">
<rect x="82.3142" width="100" height="100" rx="8" transform="rotate(0.18 82.3142 0)" fill="white"/>
</clipPath>
<clipPath id="clip1_479_65">
<rect x="189.236" y="22" width="75" height="75" rx="8" transform="rotate(0.18 189.236 22)" fill="white"/>
</clipPath>
<clipPath id="clip2_479_65">
<rect x="0.235596" y="22" width="75" height="75" rx="8" transform="rotate(0.18 0.235596 22)" fill="white"/>
</clipPath>
</defs>
</svg>
