<svg width="279" height="105" viewBox="0 0 279 105" fill="none" xmlns="http://www.w3.org/2000/svg">
<path d="M224.791 42.9162C228.636 41.8855 232.48 40.8541 236.324 39.8235C237.414 38.538 237.889 36.76 237.423 35.0228L268.712 26.6378C270.818 26.0736 272.095 23.8726 271.531 21.7671C271.095 20.0103 268.66 18.4641 266.66 18.9617L235.358 27.3439C234.605 24.5316 231.685 22.843 228.873 23.5965L226.357 24.2694C226.533 26.7417 225.638 28.0446 224.996 30.1263C225.89 29.8863 226.785 29.6465 227.68 29.4068C228.541 29.2353 229.186 29.7879 229.305 30.3359C229.496 31.0444 229.075 31.7729 228.366 31.9612C227.171 32.2812 225.976 32.6012 224.781 32.9213C224.87 33.8863 225.155 34.7036 225.415 35.499L229.049 34.5233C229.914 34.3527 230.513 34.7773 230.674 35.4628C230.863 36.1704 230.443 36.8971 229.735 37.0854L225.85 38.1284C225.753 39.8754 225.429 41.5814 224.791 42.9162ZM219.76 26.0371C219.839 26.9702 219.879 27.7951 219.245 29.3117C218.611 30.8284 218.58 33.2174 219.414 35.5682C220.249 37.9191 220.029 40.5947 218.855 42.9004C218.462 44.407 218.731 45.5102 219.131 46.8057C219.653 48.2002 219.846 49.838 219.706 51.5313C217.525 50.22 214.98 49.4584 212.255 49.4584C204.667 49.4584 198.418 55.295 197.747 62.7115H203.078C203.726 58.2288 207.598 54.7612 212.255 54.7612C216.912 54.7612 220.775 58.2288 221.422 62.7115H227.201C227.665 61.9239 228.514 61.3813 229.481 61.3813C230.447 61.3813 231.295 61.9243 231.758 62.7115H234.597C234.012 60.4186 231.964 58.7312 229.481 58.7312C228.238 58.7312 227.118 59.1719 226.217 59.8828C225.955 59.0003 225.607 58.1561 225.19 57.3518C226.431 56.5539 227.904 56.081 229.481 56.081C233.404 56.081 236.674 58.9622 237.31 62.7115H242.649C242.495 61.2065 242.09 59.7736 241.476 58.4568C243.482 54.686 247.45 52.1085 252.007 52.1085C258.13 52.1085 263.191 56.7606 263.852 62.7115H269.165C268.486 53.8309 261.058 46.8083 252.007 46.8083C246.27 46.8083 241.181 49.625 238.05 53.9537C237.262 53.1813 234.685 51.852 234.68 51.8497C234.841 50.7801 234.778 49.6806 234.447 48.6277C233.843 47.1145 233.182 45.3123 233.024 43.4517C232.071 43.7064 231.117 43.9603 230.164 44.2152C230.129 45.364 230.53 46.1663 230.995 47.2198C231.528 48.4312 231.831 49.7133 231.916 51.0086C231.126 50.8599 230.311 50.7806 229.478 50.7806C229.395 50.7806 229.316 50.7899 229.232 50.7899C229.135 49.9346 228.923 49.0901 228.57 48.2873C227.916 47.2025 227.694 46.0462 227.537 44.9203C226.568 45.1798 225.598 45.4395 224.628 45.6993C224.674 46.4539 225.058 47.0976 225.371 47.8059C225.847 48.8884 226.124 50.0308 226.243 51.1858C225.344 51.413 224.479 51.73 223.663 52.1304C223.326 48.6963 222.066 47.3475 221.902 44.6614C221.904 43.6914 222.026 42.8469 222.655 41.4702C223.283 40.0935 223.455 38.0972 222.901 36.5201C222.347 34.943 222.078 33.4586 222.124 31.3275C222.196 28.0528 223.836 27.0726 223.668 24.9921L219.76 26.0371ZM217.108 26.7487L208.968 28.9278C208.265 29.1207 207.85 29.8461 208.039 30.5505L209.064 34.3859C211.436 33.7496 213.809 33.1172 216.181 32.4836C216.133 30.8473 216.426 29.2051 217.087 27.6752L217.066 27.7254C217.054 27.7573 217.095 27.2952 217.108 26.7487ZM198.2 31.0293C197.497 31.2506 197.11 32.0031 197.338 32.7038C197.924 34.5454 197.743 36.5416 196.838 38.2498C196.802 38.322 196.773 38.3978 196.75 38.4751C196.017 40.8371 196.264 43.399 197.436 45.5766C197.783 46.2185 198.584 46.4592 199.227 46.1149C199.874 45.7669 200.115 44.9587 199.763 44.3136C198.941 42.7876 198.765 41.0017 199.256 39.342C200.425 37.0382 200.646 34.3572 199.861 31.8912C199.371 30.8397 198.682 30.9272 198.2 31.0293ZM203.627 31.0293C202.925 31.2517 202.539 32.0039 202.768 32.7038C203.354 34.5454 203.172 36.5416 202.268 38.2498C202.232 38.322 202.202 38.3978 202.18 38.4751C201.447 40.8371 201.693 43.399 202.866 45.5766C203.213 46.2169 204.011 46.4574 204.654 46.1149C205.302 45.7677 205.544 44.9593 205.192 44.3136C204.37 42.7869 204.193 40.9998 204.685 39.3395C205.854 37.0361 206.076 34.3564 205.291 31.8912C204.799 30.8377 204.096 30.8833 203.627 31.0293ZM216.569 35.126C214.296 35.7339 212.023 36.3414 209.75 36.9506L210.436 39.5127C212.704 38.9081 214.972 38.3002 217.24 37.6933C217.141 36.7673 216.834 35.9442 216.569 35.126ZM216.973 40.5013C215.022 41.0228 213.07 41.5441 211.119 42.067C211.47 43.4535 211.878 44.9306 212.297 46.2571L216.06 45.2502C215.827 43.3801 216.36 42.066 216.973 40.5013ZM252.007 54.7611C247.319 54.7611 243.468 58.2064 242.827 62.7114H245.508C246.127 59.6967 248.816 57.4113 252.007 57.4113C255.197 57.4113 257.878 59.6967 258.495 62.7114H261.176C260.536 58.2064 256.695 54.7611 252.007 54.7611ZM212.255 57.4113C209.034 57.4113 206.364 59.6765 205.754 62.7114H208.523C209.077 61.1773 210.541 60.0613 212.255 60.0614C213.97 60.0614 215.428 61.1773 215.979 62.7114H218.746C218.138 59.6765 215.477 57.4113 212.255 57.4113ZM252.007 60.0614C250.263 60.0614 248.811 61.1644 248.267 62.7114H255.736C255.195 61.1644 253.75 60.0614 252.007 60.0614ZM197.68 65.3642V69.2565C197.68 69.7488 197.783 70.2162 197.946 70.6541H268.963C269.128 70.2164 269.233 69.7488 269.233 69.2565V65.3642H197.68ZM200.876 73.3067C202.088 80.7951 205.825 87.4194 211.186 92.3H255.726C261.087 87.4193 264.824 80.7945 266.036 73.3067H200.876ZM259.069 75.623C259.751 75.8928 260.084 76.6655 259.812 77.3466C258.919 79.6035 257.848 81.5193 256.673 83.3611C256.282 83.9805 255.462 84.1648 254.843 83.7728C254.221 83.3777 254.041 82.5509 254.442 81.9327C255.564 80.1749 256.534 78.4349 257.348 76.3763C257.789 75.5473 258.388 75.3344 259.069 75.623ZM252.915 86.0112C253.428 86.5371 253.415 87.38 252.886 87.8901C252.001 88.7511 251.09 89.5348 250.167 90.258C249.588 90.7058 248.757 90.6005 248.308 90.0225C247.858 89.447 247.959 88.6157 248.534 88.1643C249.395 87.4898 250.232 86.7781 251.039 85.993C251.731 85.3322 252.371 85.5832 252.915 86.0112ZM213.575 94.9527V97.0853C213.575 99.3083 215.413 101.133 217.636 101.133H249.276C251.5 101.133 253.327 99.3083 253.327 97.0853V94.9527H213.575Z" fill="white"/>
<g clip-path="url(#clip0_479_66)">
<path d="M24.8586 22.1318C21.5188 21.8974 18.7209 24.1825 17.9006 27.2148L16.1721 33.7187C16.2453 33.7187 16.3332 33.7187 16.4064 33.7187C42.2902 33.7187 63.2814 54.7099 63.2814 80.5937C63.2814 80.6669 63.2814 80.7548 63.2814 80.8281L69.7854 79.0995C72.8322 78.2939 75.1027 75.4814 74.8684 72.1415C73.0227 45.3642 51.6359 23.9775 24.8586 22.1318ZM58.5646 82.0878C58.5793 81.5898 58.5939 81.0917 58.5939 80.5937C58.5939 57.288 39.7121 38.4062 16.4064 38.4062C15.9084 38.4062 15.4104 38.4208 14.9123 38.4355L0.073442 94.0556C-0.146285 94.8613 0.0880904 95.7255 0.674028 96.3115C1.25997 96.8974 2.12422 97.1318 2.92989 96.9121L58.5646 82.0878ZM25.7815 52.4687C27.0247 52.4687 28.2169 52.9625 29.096 53.8416C29.9751 54.7207 30.469 55.913 30.469 57.1562C30.469 58.3994 29.9751 59.5917 29.096 60.4708C28.2169 61.3498 27.0247 61.8437 25.7815 61.8437C24.5382 61.8437 23.346 61.3498 22.4669 60.4708C21.5878 59.5917 21.094 58.3994 21.094 57.1562C21.094 55.913 21.5878 54.7207 22.4669 53.8416C23.346 52.9625 24.5382 52.4687 25.7815 52.4687ZM35.1565 71.2187C35.1565 69.9755 35.6503 68.7832 36.5294 67.9041C37.4085 67.0251 38.6007 66.5312 39.8439 66.5312C41.0872 66.5312 42.2794 67.0251 43.1585 67.9041C44.0376 68.7832 44.5314 69.9755 44.5314 71.2187C44.5314 72.4619 44.0376 73.6542 43.1585 74.5333C42.2794 75.4123 41.0872 75.9062 39.8439 75.9062C38.6007 75.9062 37.4085 75.4123 36.5294 74.5333C35.6503 73.6542 35.1565 72.4619 35.1565 71.2187ZM14.0627 78.2499C14.0627 77.0067 14.5566 75.8145 15.4356 74.9354C16.3147 74.0563 17.507 73.5624 18.7502 73.5624C19.9934 73.5624 21.1857 74.0563 22.0648 74.9354C22.9438 75.8145 23.4377 77.0067 23.4377 78.2499C23.4377 79.4931 22.9438 80.6854 22.0648 81.5645C21.1857 82.4436 19.9934 82.9374 18.7502 82.9374C17.507 82.9374 16.3147 82.4436 15.4356 81.5645C14.5566 80.6854 14.0627 79.4931 14.0627 78.2499Z" fill="white"/>
</g>
<path d="M175.662 18.7501H157.877L159.619 11.7852L167.103 9.23638C168.695 8.69537 169.643 7.00396 169.184 5.38677C169.067 4.97996 168.869 4.60111 168.601 4.2732C168.333 3.94529 168.002 3.67516 167.627 3.47919C167.252 3.28322 166.841 3.1655 166.419 3.13316C165.997 3.10082 165.572 3.15454 165.172 3.29107L155.992 6.41607C155.498 6.58464 155.054 6.87444 154.7 7.25896C154.347 7.64348 154.095 8.11047 153.969 8.61724L151.436 18.7501H125.838C124.156 18.7501 122.713 20.043 122.629 21.7247C122.609 22.1472 122.674 22.5695 122.822 22.9659C122.969 23.3623 123.196 23.7246 123.488 24.0308C123.78 24.3371 124.131 24.5809 124.52 24.7475C124.908 24.9141 125.327 25 125.75 25.0001H126.287L126.482 26.6915C126.528 27.0865 126.718 27.4508 127.015 27.7151C127.312 27.9794 127.696 28.1253 128.094 28.1251C135.711 28.1251 142.48 30.254 147.648 34.2813C150.523 36.4961 152.853 39.3387 154.461 42.5918C155.361 44.4217 156.025 46.3584 156.437 48.3555C156.52 48.7447 156.75 49.0866 157.08 49.3086C159.737 51.1114 161.697 53.7692 162.634 56.8401C163.572 59.9111 163.43 63.2103 162.232 66.1895C162.093 66.5343 162.083 66.9177 162.203 67.2696C162.895 69.2524 163.249 71.3374 163.25 73.4376C163.25 77.8008 161.766 81.959 159.07 85.1465C157.542 86.9658 155.62 88.4132 153.449 89.379C153.074 89.5444 152.778 89.851 152.627 90.2325C151.816 92.3456 150.67 94.3148 149.234 96.0645C149.175 96.1355 149.136 96.2221 149.124 96.314C149.112 96.406 149.126 96.4996 149.165 96.5839C149.204 96.6681 149.266 96.7395 149.344 96.7897C149.422 96.8399 149.513 96.8668 149.605 96.8672H159.217C161.57 96.8576 163.834 95.9674 165.564 94.3718C167.294 92.7762 168.363 90.5909 168.562 88.2461L175.242 25.0001H175.75C176.173 25.0005 176.592 24.915 176.982 24.7486C177.371 24.5823 177.722 24.3385 178.015 24.0322C178.307 23.7259 178.534 23.3635 178.682 22.9668C178.83 22.5701 178.895 22.1475 178.875 21.7247C178.793 20.043 177.344 18.7501 175.662 18.7501Z" fill="white"/>
<path d="M103.229 62.5C103.845 62.4971 104.456 62.6164 105.026 62.8511C105.596 63.0858 106.113 63.4311 106.549 63.8672L109.578 66.8965C109.651 66.9691 109.737 67.0267 109.832 67.0661C109.927 67.1054 110.028 67.1256 110.131 67.1256C110.234 67.1256 110.335 67.1054 110.43 67.0661C110.525 67.0267 110.611 66.9691 110.684 66.8965L113.707 63.8672C114.143 63.4311 114.66 63.0858 115.23 62.8511C115.8 62.6164 116.411 62.4971 117.027 62.5H155.422C155.627 62.5021 155.831 62.4637 156.021 62.3871C156.211 62.3104 156.385 62.1971 156.531 62.0534C156.678 61.9098 156.795 61.7387 156.875 61.5499C156.956 61.3611 156.998 61.1583 157 60.9531V60.9375C156.998 59.1372 156.375 57.3926 155.236 55.998C154.098 54.6033 152.513 53.6438 150.75 53.2812C150.59 47.4824 148.211 42.6289 143.814 39.2188C139.748 36.0469 134.314 34.375 128.094 34.375H114.031C100.707 34.375 91.6816 41.9473 91.375 53.2812C89.6115 53.6438 88.027 54.6033 86.8885 55.998C85.75 57.3926 85.1272 59.1372 85.125 60.9375C85.125 61.3519 85.2896 61.7493 85.5826 62.0424C85.8757 62.3354 86.2731 62.5 86.6875 62.5H103.229Z" fill="white"/>
<path d="M118.316 68.75C118.111 68.7499 117.908 68.7902 117.718 68.8686C117.529 68.947 117.356 69.062 117.211 69.2071L112.887 73.5332C112.154 74.2655 111.161 74.6769 110.125 74.6769C109.089 74.6769 108.096 74.2655 107.363 73.5332L103.039 69.2071C102.894 69.062 102.721 68.947 102.532 68.8686C102.342 68.7902 102.139 68.7499 101.934 68.75H88.3789C87.6448 68.7468 86.9333 69.0032 86.37 69.4739C85.8067 69.9446 85.428 70.5993 85.3008 71.3223C85.1834 72.0213 85.1246 72.7288 85.125 73.4375C85.125 79.4121 89.252 84.2793 94.3555 84.375C94.8301 87.3282 95.9785 89.9961 97.707 92.084C100.264 95.1719 103.98 96.875 108.172 96.875H133.953C138.145 96.875 141.861 95.1719 144.418 92.0801C146.146 89.9922 147.295 87.3243 147.77 84.3711C152.873 84.2793 157 79.4121 157 73.4336C157 72.7249 156.942 72.0174 156.824 71.3184C156.696 70.5961 156.317 69.9423 155.754 69.4724C155.191 69.0024 154.48 68.7466 153.746 68.75H118.316Z" fill="white"/>
<defs>
<clipPath id="clip0_479_66">
<rect width="75" height="75" fill="white" transform="translate(0 22)"/>
</clipPath>
</defs>
</svg>
